<svg xmlns="http://www.w3.org/2000/svg" xmlns:xlink="http://www.w3.org/1999/xlink" version="1.1" id="Camada_1" x="0px" y="0px" viewBox="0 0 865.4 1080" style="enable-background:new 0 0 865.4 1080;" xml:space="preserve" width="865.4"  height="1080" >
<style type="text/css">
	.st0{fill-rule:evenodd;clip-rule:evenodd;fill:#006198;}
</style>
<g transform="matrix(1,0,0,1,295,0)">
	<path class="st0" d="M308.6,49.7h0.3c0.4,0,0.8,0,1.2,0.1c0.4,0,0.8,0.1,1.2,0.1h0.1c0.9,0.1,1.9,0.3,2.8,0.5   c0.8,0.2,1.5,0.4,2.7,0.9s2.3,1.1,3.4,1.8l0,0c0.1,0.1,0.2,0.2,0.4,0.2l0.1,0.1l0.1,0.1l0.1,0.1l0.1,0.1l0.1,0.1l0.1,0.1l0.2,0.1   l0.1,0.1c0.4,0.3,0.9,0.7,1.3,1c0.3,0.3,0.6,0.5,0.9,0.8l166.4,166.4c0.3,0.3,0.5,0.6,0.8,0.9c0.4,0.4,0.7,0.8,1,1.3   c0.5,0.6,0.9,1.3,1.6,2.4c0.3,0.5,0.6,1.1,0.9,1.7v0.1l0.1,0.1l0.1,0.2c0.4,0.8,0.7,1.7,1,2.5c0.2,0.5,0.3,1,0.4,1.6v0.1v0.1v0.1   c0.1,0.5,0.2,1,0.2,1.5c0,0.1,0,0.1,0,0.2c0.1,0.9,0.2,1.8,0.2,2.6l0,0v771.1c-0.1,0.9-0.1,1.9-0.2,2.8c-0.2,1.9-0.7,3.7-1.5,5.4   c-1.1,2.6-2.7,5-4.7,7c-2.7,2.7-6,4.6-9.7,5.6c-2.4,0.7-3.1,0.6-5.6,0.7h-674.4c-2.5-0.2-3.2-0.1-5.6-0.7c-3.6-1-7-2.9-9.7-5.6   c-2-2-3.6-4.4-4.7-7c-0.7-1.7-1.2-3.6-1.5-5.4c-0.1-0.9-0.1-1.9-0.2-2.8V71.3c0.2-2.5,0.1-3.2,0.7-5.6c1-3.6,2.9-7,5.6-9.7   c2-2,4.4-3.6,7-4.7c1.7-0.7,3.6-1.2,5.4-1.5c0.9-0.1,1.9-0.1,2.8-0.2L308.6,49.7L308.6,49.7z M286.9,92.9H-178v894.2h631.2V259.2   H308.5c-1,0-1.3,0-2.3-0.1c-1.6-0.2-3.1-0.5-4.6-1c-3-1-5.7-2.6-8-4.8c-2.3-2.1-4.1-4.8-5.2-7.7c-0.7-1.8-1.2-3.7-1.4-5.7   c-0.1-1-0.1-1.3-0.1-2.3V92.9z M185.2,678.2H-99.9c-1.4,0-1.7,0-3.1-0.2c-2.5-0.4-5-1.2-7.3-2.4c-1.8-1-3.5-2.2-4.9-3.7   c-1.5-1.5-2.7-3.1-3.7-4.9c-1.5-2.7-2.4-5.7-2.6-8.8c-0.3-3.6,0.4-7.2,1.9-10.5c1.1-2.3,2.6-4.5,4.4-6.3c2.9-2.9,6.7-5,10.7-5.8   c1-0.2,2-0.4,3-0.4c0.5,0,1,0,1.5-0.1h285.1c0.5,0,1,0,1.5,0.1s1,0.1,1.5,0.2c1,0.1,2,0.4,3,0.7c3.5,1,6.6,2.9,9.2,5.4   c1.5,1.5,2.7,3.1,3.7,4.9c1,1.8,1.7,3.7,2.2,5.8c0.8,3.5,0.6,7.2-0.4,10.7c-0.9,3-2.4,5.7-4.4,8.1c-1.7,1.9-3.7,3.6-6,4.8   s-4.7,2.1-7.3,2.4C186.9,678.2,186.6,678.2,185.2,678.2z M185.2,583.2H-99.9c-1.4,0-1.7,0-3.1-0.2c-2.5-0.4-5-1.2-7.3-2.4   c-1.8-1-3.5-2.2-4.9-3.7c-1.5-1.5-2.7-3.1-3.7-4.9c-1.5-2.7-2.4-5.7-2.6-8.8c-0.3-3.6,0.4-7.2,1.9-10.5c1.1-2.3,2.6-4.5,4.4-6.3   c2.9-2.9,6.7-5,10.7-5.8c1-0.2,2-0.4,3-0.4c0.5,0,1,0,1.5-0.1h285.1c0.5,0,1,0,1.5,0.1s1,0.1,1.5,0.2c1,0.1,2,0.4,3,0.7   c3.5,1,6.6,2.9,9.2,5.4c1.8,1.8,3.3,4,4.4,6.3c0.9,1.9,1.4,3.9,1.7,5.9c0.4,3.1,0.2,6.2-0.7,9.2c-1,3.5-2.9,6.6-5.4,9.2   c-1.5,1.5-3.1,2.7-4.9,3.7c-2.3,1.2-4.7,2.1-7.3,2.4C186.9,583.2,186.6,583.2,185.2,583.2z M375.3,393.1H-99.9c-0.7,0-1.3,0-2-0.1   c-2.7-0.2-5.3-1-7.6-2.2c-3-1.5-5.6-3.7-7.6-6.3c-2-2.7-3.4-5.8-4-9c-0.4-2-0.5-4-0.3-6s0.6-3.9,1.4-5.8c1-2.5,2.4-4.8,4.2-6.7   c3.1-3.5,7.4-5.8,12-6.7c1.7-0.3,2.2-0.3,4-0.4h475.2c0.7,0,1.3,0.1,2,0.1c0.7,0.1,1.3,0.2,2,0.3c2.6,0.5,5.1,1.5,7.4,2.9   s4.3,3.2,5.9,5.3c1.2,1.6,2.2,3.4,2.9,5.2c1.2,3.1,1.7,6.5,1.4,9.8c-0.3,3.3-1.4,6.5-3.1,9.4c-1,1.7-2.3,3.2-3.8,4.6   c-3,2.7-6.6,4.5-10.6,5.3C377.5,393.1,377.1,393,375.3,393.1z M185.2,298.1H-99.9c-0.5,0-1,0-1.5-0.1c-1-0.1-2-0.2-3-0.4   c-4-0.9-7.8-2.9-10.7-5.8c-2.5-2.5-4.4-5.7-5.4-9.2c-0.9-3-1.1-6.1-0.7-9.2c0.3-2,0.9-4,1.7-5.9c0.9-1.9,2-3.6,3.3-5.2   c1.7-1.9,3.7-3.6,6-4.8c2.3-1.2,4.7-2.1,7.3-2.4c1.4-0.2,1.7-0.2,3.1-0.2h285.1c0.5,0,1,0,1.5,0.1s1,0.1,1.5,0.2c1,0.1,2,0.4,3,0.7   c3.5,1,6.6,2.9,9.2,5.4c1.5,1.5,2.7,3.1,3.7,4.9c1.7,3.2,2.6,6.7,2.6,10.4c0,3.1-0.7,6.2-2,9c-0.9,1.9-2,3.6-3.3,5.2   c-1.7,1.9-3.7,3.6-6,4.8c-2.3,1.2-4.7,2.1-7.3,2.4C186.9,298.1,186.6,298,185.2,298.1z M330.1,216h92.6l-92.6-92.6V216z M185.2,203   H-99.9c-0.5,0-1,0-1.5-0.1c-1-0.1-2-0.2-3-0.4c-4-0.9-7.8-2.9-10.7-5.8c-2.5-2.5-4.4-5.7-5.4-9.2c-0.9-3-1.1-6.1-0.7-9.2   c0.3-2,0.9-4,1.7-5.9c0.9-1.9,2-3.6,3.3-5.2c1.7-1.9,3.7-3.6,6-4.8s4.7-2.1,7.3-2.4c1.4-0.2,1.7-0.2,3.1-0.2h285.1   c0.5,0,1,0,1.5,0.1s1,0.1,1.5,0.2c1,0.1,2,0.4,3,0.7c3.5,1,6.6,2.9,9.2,5.4c1.5,1.5,2.7,3.1,3.7,4.9c1,1.8,1.7,3.7,2.2,5.8   c0.8,3.5,0.6,7.2-0.4,10.7c-0.9,3-2.4,5.7-4.4,8.1c-1.7,1.9-3.7,3.6-6,4.8s-4.7,2.1-7.3,2.4C186.9,203,186.6,203,185.2,203z"/>
</g>
</svg>