<?xml version="1.0" encoding="utf-8"?>
<!-- Generator: Adobe Illustrator 25.2.3, SVG Export Plug-In . SVG Version: 6.00 Build 0)  -->
<svg version="1.1" id="Camada_1" xmlns="http://www.w3.org/2000/svg" xmlns:xlink="http://www.w3.org/1999/xlink" x="0px" y="0px"
	 viewBox="0 0 48 48" style="enable-background:new 0 0 48 48;" xml:space="preserve">
<style type="text/css">
	.st0{fill:#006198;}
</style>
<g id="Expanded">
	<g>
		<g>
			<path class="st0" d="M32.8,39.6H5.5c-1.6,0-2.9-1.3-2.9-2.9V19.1c0-1.6,1.3-2.9,2.9-2.9h27.3c1.6,0,2.9,1.3,2.9,2.9v17.5
				C35.7,38.2,34.4,39.6,32.8,39.6z M5.5,18.1c-0.5,0-1,0.4-1,1v17.5c0,0.5,0.4,1,1,1h27.3c0.5,0,1-0.4,1-1V19.1c0-0.5-0.4-1-1-1
				H5.5z"/>
		</g>
		<g>
			<path class="st0" d="M12.3,32.7c-2.1,0-3.9-1.7-3.9-3.9s1.7-3.9,3.9-3.9s3.9,1.7,3.9,3.9S14.5,32.7,12.3,32.7z M12.3,26.9
				c-1.1,0-1.9,0.9-1.9,1.9s0.9,1.9,1.9,1.9s1.9-0.9,1.9-1.9S13.4,26.9,12.3,26.9z"/>
		</g>
		<g>
			<path class="st0" d="M25.9,32.7c-2.1,0-3.9-1.7-3.9-3.9s1.7-3.9,3.9-3.9s3.9,1.7,3.9,3.9S28.1,32.7,25.9,32.7z M25.9,26.9
				c-1.1,0-1.9,0.9-1.9,1.9s0.9,1.9,1.9,1.9c1.1,0,1.9-0.9,1.9-1.9S27,26.9,25.9,26.9z"/>
		</g>
		<g>
			<path class="st0" d="M25.9,26.9H12.3c-0.5,0-1-0.4-1-1c0-0.5,0.4-1,1-1h13.6c0.5,0,1,0.4,1,1C26.9,26.5,26.5,26.9,25.9,26.9z"/>
		</g>
		<g>
			<path class="st0" d="M23,18.1c-0.5,0-1-0.4-1-1v-3.9c0-0.5-0.4-1-1-1H1.6c-0.5,0-1-0.4-1-1s0.4-1,1-1h19.5c1.6,0,2.9,1.3,2.9,2.9
				V17C24,17.7,23.6,18.1,23,18.1z"/>
		</g>
		<g>
			<path class="st0" d="M30.8,18.1c-0.5,0-1-0.4-1-1v-5.8c0-1.6,1.3-2.9,2.9-2.9h3.9c0.5,0,1,0.4,1,1s-0.4,1-1,1h-3.9
				c-0.5,0-1,0.4-1,1v5.8C31.8,17.7,31.4,18.1,30.8,18.1z"/>
		</g>
		<g>
			<path class="st0" d="M44.4,12.3h-5.8c-1.6,0-2.9-1.3-2.9-2.9s1.3-2.9,2.9-2.9h5.8c1.6,0,2.9,1.3,2.9,2.9S46.1,12.3,44.4,12.3z
				 M38.6,8.4c-0.5,0-1,0.4-1,1s0.4,1,1,1h5.8c0.5,0,1-0.4,1-1s-0.4-1-1-1H38.6z"/>
		</g>
		<g>
			<path class="st0" d="M45.3,37.1c-0.3,0-0.5-0.1-0.8-0.2l-10.2-4.3c-0.5-0.2-0.7-0.8-0.5-1.3s0.8-0.7,1.3-0.5l10.2,4.3l0.1-0.1
				V22.6l-0.5-1l0.4,0.9l-10.2,4.3c-0.5,0.2-1.1,0-1.3-0.5s0-1.1,0.5-1.3l10.2-4.3c0.6-0.3,1.3-0.2,1.9,0.2c0.6,0.4,0.9,1,0.9,1.7
				V35c0,0.7-0.3,1.3-0.9,1.7C46.1,37,45.7,37.1,45.3,37.1z"/>
		</g>
	</g>
</g>
</svg>
